{
    "accessors": {
        "accessor_buffer_Icosphere.016_0": {
            "bufferView": "bufferView_buffer_Icosphere.016_0",
            "byteOffset": 0,
            "byteStride": 12,
            "componentType": 5126,
            "count": 6535,
            "max": [
                15.975802421569824,
                5.050400257110596,
                10.763120651245117
            ],
            "min": [
                -1.3942183256149292,
                -13.08361530303955,
                -12.661928176879883
            ],
            "type": "VEC3"
        },
        "accessor_buffer_Icosphere.016_1": {
            "bufferView": "bufferView_buffer_Icosphere.016_0",
            "byteOffset": 78420,
            "byteStride": 12,
            "componentType": 5126,
            "count": 6535,
            "max": [
                0.9984811544418335,
                0.9988645911216736,
                0.9995484948158264
            ],
            "min": [
                -0.9997691512107849,
                -0.9970536828041077,
                -0.9989080429077148
            ],
            "type": "VEC3"
        },
        "accessor_buffer_Icosphere.016_2": {
            "bufferView": "bufferView_buffer_Icosphere.016_0",
            "byteOffset": 156840,
            "byteStride": 12,
            "componentType": 5126,
            "count": 6535,
            "max": [
                1.0,
                1.0,
                1.0
            ],
            "min": [
                0.0,
                0.0,
                0.1764705926179886
            ],
            "type": "VEC3"
        },
        "accessor_buffer_Icosphere.016_3": {
            "bufferView": "bufferView_buffer_Icosphere.016_1",
            "byteOffset": 0,
            "byteStride": 2,
            "componentType": 5123,
            "count": 10323,
            "max": [
                6534
            ],
            "min": [
                0
            ],
            "type": "SCALAR"
        }
    },
    "asset": {
        "profile": {
            "api": "WebGL",
            "version": "1.0.3"
        },
        "version": "1.0"
    },
    "bufferViews": {
        "bufferView_buffer_Icosphere.016_0": {
            "buffer": "buffer_Icosphere.016",
            "byteLength": 235260,
            "byteOffset": 0,
            "target": 34962
        },
        "bufferView_buffer_Icosphere.016_1": {
            "buffer": "buffer_Icosphere.016",
            "byteLength": 20646,
            "byteOffset": 235260,
            "target": 34963
        }
    },
    "buffers": {
        "buffer_Icosphere.016": {
            "byteLength": 255906,
            "type": "arraybuffer",
            "uri": "data:text/plain;base64,"
        }
    },
    "extensions": {
        "KHR_materials_common": {
            "lights": {}
        }
    },
    "extensionsUsed": [
        "KHR_materials_common"
    ],
    "materials": {
        "material_Material.004": {
            "extensions": {
                "KHR_materials_common": {
                    "technique": "PHONG",
                    "values": {
                        "ambient": [
                            1.0,
                            1.0,
                            1.0,
                            1.0
                        ],
                        "diffuse": [
                            0.007075452711433172,
                            0.022423822432756424,
                            0.0819750651717186,
                            1.0
                        ],
                        "doubleSided": false,
                        "emission": [
                            0.0,
                            0.0,
                            0.0,
                            1.0
                        ],
                        "shininess": 50,
                        "specular": [
                            0.5,
                            0.5,
                            0.5,
                            1.0
                        ],
                        "transparency": 1.0,
                        "transparent": false
                    }
                }
            },
            "name": "Material.004"
        }
    },
    "meshes": {
        "mesh_Icosphere.016": {
            "name": "Icosphere.016",
            "primitives": [
                {
                    "attributes": {
                        "COLOR_0": "accessor_buffer_Icosphere.016_2",
                        "NORMAL": "accessor_buffer_Icosphere.016_1",
                        "POSITION": "accessor_buffer_Icosphere.016_0"
                    },
                    "indices": "accessor_buffer_Icosphere.016_3",
                    "material": "material_Material.004",
                    "mode": 4
                }
            ]
        }
    },
    "nodes": {
        "node_Icosphere.016": {
            "children": [],
            "matrix": [
                -0.09022587537765503,
                0.2544962167739868,
                0.26181912422180176,
                0.0,
                -0.04005977511405945,
                -0.27496597170829773,
                0.2534703016281128,
                0.0,
                0.3629225194454193,
                0.03291904553771019,
                0.0930689349770546,
                0.0,
                2.131786346435547,
                -3.139263153076172,
                -0.657651960849762,
                1.0
            ],
            "meshes": [
                "mesh_Icosphere.016"
            ],
            "name": "Icosphere.016"
        }
    },
    "samplers": {
        "sampler_default": {}
    },
    "scene": "scene_Scene",
    "scenes": {
        "scene_Scene": {
            "extras": {
                "active_camera": null,
                "background_color": [
                    0.05087608844041824,
                    0.05087608844041824,
                    0.05087608844041824
                ],
                "frames_per_second": 24
            },
            "name": "Scene",
            "nodes": [
                "node_Icosphere.016"
            ]
        }
    }
}
