{"accessors": {"accessor_buffer_Sphere.000_0": {"bufferView": "bufferView_buffer_Sphere.000_0", "byteOffset": 0, "byteStride": 12, "componentType": 5126, "count": 62266, "max": [5.146207332611084, 11.721593856811523, 4.771953105926514], "min": [-8.18254566192627, -13.850079536437988, -2.0748543739318848], "type": "VEC3"}, "accessor_buffer_Sphere.000_1": {"bufferView": "bufferView_buffer_Sphere.000_0", "byteOffset": 747192, "byteStride": 12, "componentType": 5126, "count": 62266, "max": [0.9992777109146118, 0.9997231960296631, 1.0], "min": [-0.9994304776191711, -0.9995461106300354, -0.999992847442627], "type": "VEC3"}, "accessor_buffer_Sphere.000_2": {"bufferView": "bufferView_buffer_Sphere.000_0", "byteOffset": 1494384, "byteStride": 8, "componentType": 5126, "count": 62266, "max": [0.9996839761734009, 0.9996825254929718], "min": [0.00031602964736521244, 0.00031745433807373047], "type": "VEC2"}, "accessor_buffer_Sphere.000_3": {"bufferView": "bufferView_buffer_Sphere.000_0", "byteOffset": 1992512, "byteStride": 12, "componentType": 5126, "count": 62266, "max": [1.0, 1.0, 1.0], "min": [1.0, 1.0, 1.0], "type": "VEC3"}, "accessor_buffer_Sphere.000_4": {"bufferView": "bufferView_buffer_Sphere.000_1", "byteOffset": 0, "byteStride": 2, "componentType": 5123, "count": 62268, "max": [62265], "min": [0], "type": "SCALAR"}}, "asset": {"profile": {"api": "WebGL", "version": "1.0.3"}, "version": "1.0"}, "bufferViews": {"bufferView_buffer_Sphere.000_0": {"buffer": "buffer_Sphere.000", "byteLength": 2739704, "byteOffset": 0, "target": 34962}, "bufferView_buffer_Sphere.000_1": {"buffer": "buffer_Sphere.000", "byteLength": 124536, "byteOffset": 2739704, "target": 34963}}, "buffers": {"buffer_Sphere.000": {"byteLength": 2864240, "type": "arraybuffer", "uri": "buffer_Sphere_000.bin"}}, "extensions": {"KHR_materials_common": {"lights": {}}}, "extensionsUsed": ["KHR_materials_common"], "images": {"image_CaveTexture": {"uri": "CaveTexture.png"}}, "materials": {"material_CaveWall": {"extensions": {"KHR_materials_common": {"technique": "CONSTANT", "values": {"ambient": [1.0, 1.0, 1.0, 1.0], "diffuse": "texture_Texture", "doubleSided": false, "emission": "texture_Texture", "shininess": 50, "specular": [0.5, 0.5, 0.5, 1.0], "transparency": 1.0, "transparent": false}}}, "name": "CaveWall"}}, "meshes": {"mesh_Sphere.000": {"name": "Sphere.000", "primitives": [{"attributes": {"COLOR_0": "accessor_buffer_Sphere.000_3", "NORMAL": "accessor_buffer_Sphere.000_1", "POSITION": "accessor_buffer_Sphere.000_0", "TEXCOORD_0": "accessor_buffer_Sphere.000_2"}, "indices": "accessor_buffer_Sphere.000_4", "material": "material_CaveWall", "mode": 4}]}}, "nodes": {"node_CaveWalls.001": {"children": [], "matrix": [1.0, 0.0, 0.0, 0.0, 0.0, 1.0, 0.0, 0.0, 0.0, 0.0, 1.0, 0.0, 1.735690712928772, -3.3333899974823, 1.8310503959655762, 1.0], "meshes": ["mesh_Sphere.000"], "name": "CaveWalls.001"}, "node_scene_Scene_root": {"children": ["node_CaveWalls.001"], "matrix": [1.0, 0.0, 0.0, 0.0, 0.0, 0.0, -1.0, 0.0, 0.0, 1.0, 0.0, 0.0, 0.0, 0.0, 0.0, 1.0], "name": "node_scene_Scene_root"}}, "samplers": {"sampler_default": {}}, "scene": "scene_Scene", "scenes": {"scene_Scene": {"extras": {"active_camera": null, "background_color": [0.05087608844041824, 0.05087608844041824, 0.05087608844041824], "frames_per_second": 24}, "name": "Scene", "nodes": ["node_scene_Scene_root"]}}, "textures": {"texture_Texture": {"format": 35906, "internalFormat": 35906, "sampler": "sampler_default", "source": "image_CaveTexture"}}}