{"accessors": {"accessor_buffer_Circle_0": {"bufferView": "bufferView_buffer_Circle_0", "byteOffset": 0, "byteStride": 12, "componentType": 5126, "count": 284, "max": [6.734896183013916, 6.566051006317139, 16.778778076171875], "min": [-6.494001865386963, 0.17071500420570374, -8.110389709472656], "type": "VEC3"}, "accessor_buffer_Circle_1": {"bufferView": "bufferView_buffer_Circle_0", "byteOffset": 3408, "byteStride": 12, "componentType": 5126, "count": 284, "max": [0.9997940063476562, 0.1178048774600029, 0.9999089241027832], "min": [-0.9999927282333374, -0.24607634544372559, -0.9998841881752014], "type": "VEC3"}, "accessor_buffer_Circle_2": {"bufferView": "bufferView_buffer_Circle_1", "byteOffset": 0, "byteStride": 2, "componentType": 5123, "count": 288, "max": [283], "min": [0], "type": "SCALAR"}}, "asset": {"profile": {"api": "WebGL", "version": "1.0.3"}, "version": "1.0"}, "bufferViews": {"bufferView_buffer_Circle_0": {"buffer": "buffer_Circle", "byteLength": 6816, "byteOffset": 0, "target": 34962}, "bufferView_buffer_Circle_1": {"buffer": "buffer_Circle", "byteLength": 576, "byteOffset": 6816, "target": 34963}}, "buffers": {"buffer_Circle": {"byteLength": 7392, "type": "arraybuffer", "uri": "buffer_Circle.bin"}}, "extensions": {"KHR_materials_common": {"lights": {}}}, "extensionsUsed": ["KHR_materials_common"], "materials": {"material_Material.001": {"extensions": {"KHR_materials_common": {"technique": "PHONG", "values": {"ambient": [1.0, 1.0, 1.0, 1.0], "diffuse": [0.6399999856948853, 0.6399999856948853, 0.6399999856948853, 0.0], "doubleSided": false, "emission": [0.0, 0.0, 0.0, 0.0], "shininess": 49, "specular": [0.5, 0.5, 0.5, 1.0], "transparency": 0.0, "transparent": true}}}, "name": "Material.001"}}, "meshes": {"mesh_Circle": {"name": "Circle", "primitives": [{"attributes": {"NORMAL": "accessor_buffer_Circle_1", "POSITION": "accessor_buffer_Circle_0"}, "indices": "accessor_buffer_Circle_2", "material": "material_Material.001", "mode": 4}]}}, "nodes": {"node_Circle": {"children": [], "matrix": [1.0, 0.0, 0.0, 0.0, 0.0, -1.6292068494294654e-07, 1.0, 0.0, 0.0, -1.0, -1.6292068494294654e-07, 0.0, 0.0, 0.0, 0.0, 1.0], "meshes": ["mesh_Circle"], "name": "Circle"}, "node_scene_Scene_root": {"children": ["node_Circle"], "matrix": [1.0, 0.0, 0.0, 0.0, 0.0, 0.0, -1.0, 0.0, 0.0, 1.0, 0.0, 0.0, 0.0, 0.0, 0.0, 1.0], "name": "node_scene_Scene_root"}}, "samplers": {"sampler_default": {}}, "scene": "scene_Scene", "scenes": {"scene_Scene": {"extras": {"active_camera": null, "background_color": [0.05087608844041824, 0.05087608844041824, 0.05087608844041824], "frames_per_second": 24}, "name": "Scene", "nodes": ["node_scene_Scene_root"]}}}