{"accessors": {"accessor_buffer_Icosphere.016_0": {"bufferView": "bufferView_buffer_Icosphere.016_0", "byteOffset": 0, "byteStride": 12, "componentType": 5126, "count": 21381, "max": [15.321209907531738, 12.835874557495117, 13.239580154418945], "min": [-8.946803092956543, -9.158395767211914, -11.803372383117676], "type": "VEC3"}, "accessor_buffer_Icosphere.016_1": {"bufferView": "bufferView_buffer_Icosphere.016_0", "byteOffset": 256572, "byteStride": 12, "componentType": 5126, "count": 21381, "max": [0.9939096570014954, 1.0, 1.0], "min": [-0.9982520341873169, -1.0, -0.9986966848373413], "type": "VEC3"}, "accessor_buffer_Icosphere.016_2": {"bufferView": "bufferView_buffer_Icosphere.016_0", "byteOffset": 513144, "byteStride": 8, "componentType": 5126, "count": 21381, "max": [0.9994361400604248, 1.0], "min": [0.0, 0.0005638599395751953], "type": "VEC2"}, "accessor_buffer_Icosphere.016_3": {"bufferView": "bufferView_buffer_Icosphere.016_0", "byteOffset": 684192, "byteStride": 12, "componentType": 5126, "count": 21381, "max": [1.0, 1.0, 1.0], "min": [1.0, 1.0, 1.0], "type": "VEC3"}, "accessor_buffer_Icosphere.016_4": {"bufferView": "bufferView_buffer_Icosphere.016_1", "byteOffset": 0, "byteStride": 2, "componentType": 5123, "count": 21384, "max": [21380], "min": [0], "type": "SCALAR"}}, "asset": {"profile": {"api": "WebGL", "version": "1.0.3"}, "version": "1.0"}, "bufferViews": {"bufferView_buffer_Icosphere.016_0": {"buffer": "buffer_Icosphere.016", "byteLength": 940764, "byteOffset": 0, "target": 34962}, "bufferView_buffer_Icosphere.016_1": {"buffer": "buffer_Icosphere.016", "byteLength": 42768, "byteOffset": 940764, "target": 34963}}, "buffers": {"buffer_Icosphere.016": {"byteLength": 983532, "type": "arraybuffer", "uri": "buffer_Icosphere_016.bin"}}, "extensions": {"KHR_materials_common": {"lights": {}}}, "extensionsUsed": ["KHR_materials_common"], "images": {"image_CrystalSurface": {"uri": "CrystalSurface.png"}}, "materials": {"material_Material": {"extensions": {"KHR_materials_common": {"technique": "CONSTANT", "values": {"ambient": [1.0, 1.0, 1.0, 1.0], "diffuse": "texture_Texture.002", "doubleSided": false, "emission": "texture_Texture.002", "shininess": 50, "specular": [0.5, 0.5, 0.5, 1.0], "transparency": 1.0, "transparent": false}}}, "name": "Material"}}, "meshes": {"mesh_Icosphere.016": {"name": "Icosphere.016", "primitives": [{"attributes": {"COLOR_0": "accessor_buffer_Icosphere.016_3", "NORMAL": "accessor_buffer_Icosphere.016_1", "POSITION": "accessor_buffer_Icosphere.016_0", "TEXCOORD_0": "accessor_buffer_Icosphere.016_2"}, "indices": "accessor_buffer_Icosphere.016_4", "material": "material_Material", "mode": 4}]}}, "nodes": {"node_Icosphere.016": {"children": [], "matrix": [-0.0479840487241745, 0.13534654676914215, 0.139241024851799, 0.0, -0.02022821269929409, -0.13884428143501282, 0.1279900223016739, 0.0, 0.32653912901878357, 0.029618874192237854, 0.08373866975307465, 0.0, 1.7826323509216309, -0.39800310134887695, 0.469889372587204, 1.0], "meshes": ["mesh_Icosphere.016"], "name": "Icosphere.016"}, "node_scene_Scene_root": {"children": ["node_Icosphere.016"], "matrix": [1.0, 0.0, 0.0, 0.0, 0.0, 0.0, -1.0, 0.0, 0.0, 1.0, 0.0, 0.0, 0.0, 0.0, 0.0, 1.0], "name": "node_scene_Scene_root"}}, "samplers": {"sampler_default": {}}, "scene": "scene_Scene", "scenes": {"scene_Scene": {"extras": {"active_camera": null, "background_color": [0.05087608844041824, 0.05087608844041824, 0.05087608844041824], "frames_per_second": 24}, "name": "Scene", "nodes": ["node_scene_Scene_root"]}}, "textures": {"texture_Texture.002": {"format": 35906, "internalFormat": 35906, "sampler": "sampler_default", "source": "image_CrystalSurface"}}}